<svg width="72" height="72" viewBox="0 0 72 72" fill="none" xmlns="http://www.w3.org/2000/svg">
<path d="M35.7548 24.528C31.706 24.528 28.0436 25.3512 27.674 33.5496C27.6659 33.6165 27.6659 33.6842 27.674 33.7512C27.674 33.7512 27.674 33.8352 27.674 33.8688C27.674 34.3896 27.674 34.9272 27.674 35.5488C27.7916 44.1 33.2348 58.9008 36.242 58.8672C39.2492 58.8336 44.2892 43.8648 44.1716 35.3472C44.0036 25.2504 40.0892 24.4608 35.7548 24.528ZM36.1916 57.1032C35.0324 56.2296 31.958 49.8624 30.3284 43.008H35.99C36.2128 43.008 36.4265 42.9195 36.584 42.7619C36.7415 42.6044 36.83 42.3907 36.83 42.168C36.83 41.9452 36.7415 41.7315 36.584 41.574C36.4265 41.4165 36.2128 41.328 35.99 41.328H29.9924C29.8244 40.4544 29.6732 39.648 29.5556 38.724H29.7404L35.9564 38.64C36.1792 38.64 36.3929 38.5515 36.5504 38.3939C36.7079 38.2364 36.7964 38.0227 36.7964 37.8C36.7964 37.5772 36.7079 37.3635 36.5504 37.206C36.3929 37.0485 36.1792 36.96 35.9564 36.96H29.7236C29.6187 36.9698 29.5163 36.9983 29.4212 37.044C29.4212 36.456 29.4212 35.8848 29.4212 35.364C29.4043 35.0562 29.4043 34.7477 29.4212 34.44L36.0068 34.356C36.1149 34.3538 36.2216 34.3303 36.3206 34.2869C36.4196 34.2435 36.5092 34.181 36.5841 34.103C36.6589 34.025 36.7177 33.933 36.7571 33.8323C36.7964 33.7316 36.8155 33.6241 36.8132 33.516C36.8088 33.2961 36.7184 33.0867 36.5613 32.9328C36.4043 32.7789 36.1931 32.6927 35.9732 32.6928L29.4884 32.7936C29.9588 26.0736 32.8484 26.0736 35.8892 26.0736C39.2492 26.0736 42.4916 25.9896 42.6092 35.196C42.6092 44.2344 37.754 55.86 36.1916 57.1032Z" fill="#F6813A"/>
<path d="M32.3285 23.4033C32.4366 23.4011 32.5432 23.3776 32.6422 23.3342C32.7413 23.2908 32.8308 23.2284 32.9057 23.1503C32.9806 23.0723 33.0393 22.9803 33.0787 22.8796C33.118 22.7789 33.1371 22.6714 33.1349 22.5633V17.1201C33.135 17.0113 33.113 16.9036 33.0704 16.8035C33.0278 16.7034 32.9654 16.613 32.8869 16.5377C32.8084 16.4623 32.7155 16.4036 32.6138 16.3652C32.512 16.3267 32.4036 16.3092 32.2949 16.3137C32.1875 16.3137 32.0813 16.3351 31.9823 16.3766C31.8834 16.4182 31.7937 16.4791 31.7186 16.5558C31.6435 16.6325 31.5845 16.7233 31.545 16.8231C31.5054 16.9229 31.4862 17.0296 31.4885 17.1369V22.5801C31.4929 22.7999 31.5833 23.0093 31.7404 23.1632C31.8974 23.3171 32.1086 23.4033 32.3285 23.4033Z" fill="#F6813A"/>
<path d="M39.1318 23.3188C39.3516 23.3144 39.561 23.2239 39.7149 23.0669C39.8688 22.9098 39.955 22.6987 39.955 22.4788V17.0524C39.9573 16.9437 39.9375 16.8356 39.897 16.7347C39.8564 16.6338 39.7959 16.5421 39.719 16.4652C39.6421 16.3883 39.5504 16.3277 39.4495 16.2872C39.3486 16.2466 39.2405 16.2269 39.1318 16.2292C38.9119 16.2336 38.7026 16.324 38.5487 16.4811C38.3947 16.6381 38.3085 16.8493 38.3086 17.0692V22.5124C38.313 22.7278 38.4017 22.9329 38.5556 23.0836C38.7095 23.2344 38.9163 23.3188 39.1318 23.3188Z" fill="#F6813A"/>
<path d="M35.7378 23.4363C35.8466 23.4364 35.9543 23.4145 36.0544 23.3719C36.1545 23.3292 36.2449 23.2668 36.3203 23.1883C36.3956 23.1099 36.4543 23.017 36.4928 22.9152C36.5313 22.8135 36.5488 22.705 36.5443 22.5963L36.4435 15.0195C36.4391 14.7996 36.3486 14.5903 36.1916 14.4364C36.0345 14.2824 35.8234 14.1962 35.6035 14.1963C35.4953 14.1985 35.3887 14.2219 35.2897 14.2653C35.1906 14.3087 35.1011 14.3712 35.0262 14.4492C34.9513 14.5272 34.8926 14.6192 34.8532 14.72C34.8139 14.8207 34.7948 14.9282 34.797 15.0363L34.8978 22.6299C34.8978 22.7387 34.9197 22.8464 34.9623 22.9464C35.0049 23.0465 35.0673 23.137 35.1458 23.2123C35.2243 23.2877 35.3172 23.3463 35.4189 23.3848C35.5207 23.4233 35.6292 23.4408 35.7378 23.4363Z" fill="#F6813A"/>
<path d="M35.688 70.208C54.5231 70.208 69.792 54.9391 69.792 36.104C69.792 17.2689 54.5231 2 35.688 2C16.8529 2 1.58398 17.2689 1.58398 36.104C1.58398 54.9391 16.8529 70.208 35.688 70.208Z" stroke="#F6813A" stroke-width="2.7216" stroke-miterlimit="10"/>
</svg>
