<svg width="71" height="72" viewBox="0 0 71 72" fill="none" xmlns="http://www.w3.org/2000/svg">
<path d="M35.4985 70.208C54.3337 70.208 69.6025 54.9391 69.6025 36.104C69.6025 17.2689 54.3337 2 35.4985 2C16.6634 2 1.39453 17.2689 1.39453 36.104C1.39453 54.9391 16.6634 70.208 35.4985 70.208Z" stroke="#F6813A" stroke-width="2.7216" stroke-miterlimit="10"/>
<path d="M50.9704 28.779C51.0464 28.1533 50.8718 27.5229 50.4847 27.0256C50.0975 26.5282 49.5292 26.2043 48.904 26.1246H22.864C22.3383 26.1209 21.8267 26.2947 21.4121 26.6179C20.9974 26.9411 20.704 27.3947 20.5792 27.9054H13.6744C13.465 27.9054 13.2641 27.9886 13.116 28.1366C12.968 28.2847 12.8848 28.4856 12.8848 28.695C12.8848 28.9044 12.968 29.1052 13.116 29.2533C13.2641 29.4014 13.465 29.4846 13.6744 29.4846H20.6128C21.2537 33.3465 23.3675 36.8094 26.5096 39.1446L21.0328 55.9446C20.9955 56.0415 20.9782 56.1449 20.9818 56.2487C20.9855 56.3524 21.01 56.4544 21.0539 56.5485C21.0978 56.6426 21.1602 56.7268 21.2374 56.7963C21.3146 56.8657 21.405 56.9188 21.5032 56.9526C21.6993 57.023 21.9152 57.0131 22.1041 56.925C22.2929 56.8369 22.4392 56.6777 22.5112 56.4822L23.5192 53.3742H41.8312C42.0406 53.3742 42.2414 53.291 42.3895 53.1429C42.5376 52.9948 42.6208 52.794 42.6208 52.5846C42.6208 52.3752 42.5376 52.1743 42.3895 52.0262C42.2414 51.8782 42.0406 51.795 41.8312 51.795H24.0568L27.8704 40.035C30.261 41.4767 32.9998 42.2386 35.7916 42.2386C38.5833 42.2386 41.3221 41.4767 43.7128 40.035L45.6112 45.8646C45.6387 45.965 45.6858 46.0589 45.7497 46.1411C45.8136 46.2233 45.8931 46.2921 45.9836 46.3436C46.074 46.3951 46.1738 46.4282 46.2771 46.4411C46.3804 46.4541 46.4852 46.4465 46.5856 46.419C46.6859 46.3914 46.7799 46.3443 46.8621 46.2804C46.9443 46.2165 47.0131 46.1371 47.0646 46.0466C47.1161 45.9561 47.1492 45.8564 47.1621 45.7531C47.1751 45.6498 47.1675 45.545 47.14 45.4446L45.0904 39.1614C46.7157 37.9127 48.0738 36.3503 49.0838 34.5668C50.0939 32.7833 50.7354 30.8151 50.9704 28.779ZM35.7328 40.6566C32.3778 40.654 29.139 39.4271 26.6243 37.2063C24.1095 34.9854 22.4917 31.9231 22.0744 28.5942C22.0603 28.4903 22.067 28.3848 22.0941 28.2836C22.1212 28.1823 22.1681 28.0875 22.2322 28.0047C22.2963 27.9218 22.3763 27.8525 22.4675 27.8009C22.5586 27.7492 22.6591 27.7162 22.7632 27.7038H48.6184C48.7296 27.7056 48.8393 27.7304 48.9405 27.7767C49.0417 27.8229 49.1322 27.8896 49.2064 27.9726C49.2798 28.0575 49.3355 28.1562 49.3701 28.263C49.4047 28.3697 49.4176 28.4823 49.408 28.5942C48.9903 31.926 47.37 34.9906 44.8518 37.2118C42.3335 39.4331 39.0907 40.6581 35.7328 40.6566Z" fill="#F6813A"/>
<path d="M48.7192 48.1826C47.8427 48.186 46.9869 48.4489 46.2597 48.9383C45.5326 49.4276 44.9667 50.1215 44.6336 50.9322C44.3005 51.7429 44.215 52.6341 44.3881 53.4934C44.5611 54.3526 44.9848 55.1413 45.6058 55.7599C46.2267 56.3785 47.017 56.7992 47.8769 56.969C48.7368 57.1388 49.6277 57.05 50.4371 56.7138C51.2466 56.3776 51.9383 55.8092 52.4249 55.0802C52.9115 54.3512 53.1712 53.4943 53.1712 52.6178C53.1712 52.034 53.0559 51.4559 52.832 50.9167C52.608 50.3775 52.2798 49.8878 51.8662 49.4757C51.4526 49.0637 50.9617 48.7373 50.4216 48.5154C49.8816 48.2935 49.303 48.1804 48.7192 48.1826ZM48.7192 55.4738C48.155 55.4705 47.6045 55.3002 47.1371 54.9844C46.6696 54.6685 46.3062 54.2214 46.0926 53.6992C45.879 53.1771 45.8248 52.6033 45.9369 52.0504C46.049 51.4975 46.3223 50.9902 46.7224 50.5925C47.1225 50.1948 47.6314 49.9244 48.185 49.8156C48.7385 49.7067 49.3119 49.7642 49.8328 49.9809C50.3537 50.1975 50.7987 50.5636 51.1118 51.0329C51.4249 51.5022 51.592 52.0537 51.592 52.6178C51.592 52.9943 51.5176 53.3671 51.373 53.7147C51.2284 54.0623 51.0165 54.3779 50.7496 54.6433C50.4826 54.9087 50.1657 55.1188 49.8173 55.2613C49.4689 55.4038 49.0957 55.4761 48.7192 55.4738Z" fill="#F6813A"/>
<path d="M48.6365 53.3413C49.0354 53.3413 49.3589 53.0179 49.3589 52.6189C49.3589 52.2199 49.0354 51.8965 48.6365 51.8965C48.2375 51.8965 47.9141 52.2199 47.9141 52.6189C47.9141 53.0179 48.2375 53.3413 48.6365 53.3413Z" fill="#F6813A"/>
<path d="M26.678 16.0446H26.6781C26.7494 16.0446 26.8177 16.0729 26.8682 16.1233C26.9185 16.1737 26.9469 16.2421 26.9469 16.3134V20.7067C26.9447 20.7795 26.9149 20.8488 26.8634 20.9003C26.8138 20.9498 26.748 20.9793 26.6784 20.9834C26.6123 20.9793 26.55 20.9511 26.5033 20.9037C26.4538 20.8534 26.4261 20.7857 26.4261 20.7151V20.715V16.3134H26.4262L26.426 16.3005C26.4255 16.2671 26.4316 16.2339 26.444 16.2028C26.4565 16.1718 26.475 16.1436 26.4984 16.1198C26.5219 16.0959 26.5498 16.077 26.5806 16.0641C26.6114 16.0512 26.6445 16.0446 26.678 16.0446Z" fill="#13110C" stroke="#F6813A" stroke-width="1.68"/>
<path d="M35.6875 11.7049L36.2815 11.1109L35.6875 11.7049C35.7379 11.7552 35.7663 11.8236 35.7663 11.8949V20.7067C35.7641 20.7795 35.7343 20.8487 35.6828 20.9002L36.2767 21.4942L35.6828 20.9002C35.6332 20.9498 35.5672 20.9793 35.4975 20.9834C35.4278 20.9793 35.3618 20.9498 35.3122 20.9002L34.7182 21.4942L35.3122 20.9002C35.2607 20.8487 35.2308 20.7794 35.2287 20.7067V11.8949C35.2287 11.8237 35.257 11.7553 35.3074 11.7049C35.3578 11.6545 35.4262 11.6261 35.4975 11.6261C35.5688 11.6261 35.6371 11.6545 35.6875 11.7049Z" fill="#13110C" stroke="#F6813A" stroke-width="1.68"/>
<path d="M44.5698 20.715V20.7151C44.5698 20.7857 44.542 20.8534 44.4925 20.9037C44.4459 20.9511 44.3835 20.9794 44.3175 20.9834C44.2479 20.9793 44.182 20.9498 44.1325 20.9003C44.081 20.8487 44.0511 20.7795 44.049 20.7067V16.3134C44.049 16.2421 44.0773 16.1737 44.1277 16.1233C44.1781 16.0729 44.2465 16.0446 44.3178 16.0446H44.3179C44.3513 16.0446 44.3844 16.0512 44.4152 16.0641C44.446 16.077 44.474 16.0959 44.4974 16.1198C44.5209 16.1436 44.5394 16.1719 44.5518 16.2028L44.5518 16.2028C44.5642 16.2338 44.5704 16.267 44.5699 16.3005L44.5698 16.3005V16.3134V20.715Z" fill="#13110C" stroke="#F6813A" stroke-width="1.68"/>
</svg>
