<svg width="64" height="64" viewBox="0 0 64 64" fill="none" xmlns="http://www.w3.org/2000/svg">
<path d="M32 62C48.5685 62 62 48.5685 62 32C62 15.4315 48.5685 2 32 2C15.4315 2 2 15.4315 2 32C2 48.5685 15.4315 62 32 62Z" fill="white" stroke="#5EC74C" stroke-width="4"/>
<path fill-rule="evenodd" clip-rule="evenodd" d="M32 19.7028C36.0052 19.7028 36.4795 19.718 38.0612 19.7902C39.5237 19.8569 40.318 20.1013 40.8466 20.3066C41.5467 20.5787 42.0464 20.9039 42.5713 21.4287C43.0962 21.9536 43.4213 22.4533 43.6933 23.1534C43.8987 23.682 44.1431 24.4763 44.2098 25.9387C44.282 27.5205 44.2972 27.9948 44.2972 32C44.2972 36.0052 44.282 36.4796 44.2098 38.0613C44.1431 39.5238 43.8987 40.318 43.6933 40.8466C43.4213 41.5467 43.0962 42.0465 42.5713 42.5713C42.0464 43.0962 41.5467 43.4213 40.8466 43.6934C40.318 43.8988 39.5237 44.1431 38.0612 44.2099C36.4798 44.2821 36.0054 44.2973 32 44.2973C27.9945 44.2973 27.5202 44.2821 25.9387 44.2099C24.4762 44.1431 23.682 43.8988 23.1534 43.6934C22.4533 43.4213 21.9535 43.0962 21.4287 42.5713C20.9038 42.0465 20.5787 41.5467 20.3066 40.8466C20.1012 40.318 19.8569 39.5238 19.7901 38.0613C19.7179 36.4796 19.7027 36.0052 19.7027 32C19.7027 27.9948 19.7179 27.5205 19.7901 25.9388C19.8569 24.4763 20.1012 23.682 20.3066 23.1534C20.5787 22.4533 20.9038 21.9536 21.4287 21.4287C21.9535 20.9039 22.4533 20.5787 23.1534 20.3066C23.682 20.1013 24.4762 19.8569 25.9387 19.7902C27.5204 19.718 27.9948 19.7028 32 19.7028ZM32 17C27.9262 17 27.4154 17.0173 25.8155 17.0903C24.2189 17.1631 23.1285 17.4167 22.1744 17.7875C21.188 18.1708 20.3515 18.6837 19.5176 19.5176C18.6837 20.3515 18.1708 21.188 17.7875 22.1744C17.4166 23.1286 17.1631 24.2189 17.0902 25.8156C17.0172 27.4154 17 27.9262 17 32C17 36.0738 17.0172 36.5846 17.0902 38.1845C17.1631 39.7811 17.4166 40.8715 17.7875 41.8256C18.1708 42.812 18.6837 43.6485 19.5176 44.4824C20.3515 45.3163 21.188 45.8292 22.1744 46.2125C23.1285 46.5834 24.2189 46.8369 25.8155 46.9098C27.4154 46.9828 27.9262 47 32 47C36.0738 47 36.5846 46.9828 38.1844 46.9098C39.7811 46.8369 40.8714 46.5834 41.8256 46.2125C42.812 45.8292 43.6485 45.3163 44.4824 44.4824C45.3163 43.6485 45.8292 42.812 46.2125 41.8256C46.5833 40.8715 46.8369 39.7811 46.9097 38.1845C46.9827 36.5846 47 36.0738 47 32C47 27.9262 46.9827 27.4154 46.9097 25.8156C46.8369 24.2189 46.5833 23.1286 46.2125 22.1744C45.8292 21.188 45.3163 20.3515 44.4824 19.5176C43.6485 18.6837 42.812 18.1708 41.8256 17.7875C40.8714 17.4167 39.7811 17.1631 38.1844 17.0903C36.5846 17.0173 36.0738 17 32 17ZM32.0298 24.3214C27.7726 24.3214 24.3214 27.7726 24.3214 32.0298C24.3214 36.2869 27.7726 39.7381 32.0298 39.7381C36.2869 39.7381 39.7381 36.2869 39.7381 32.0298C39.7381 27.7726 36.2869 24.3214 32.0298 24.3214ZM32.0298 37.0334C29.2663 37.0334 27.0261 34.7932 27.0261 32.0298C27.0261 29.2663 29.2663 27.0261 32.0298 27.0261C34.7932 27.0261 37.0334 29.2663 37.0334 32.0298C37.0334 34.7932 34.7932 37.0334 32.0298 37.0334ZM41.7619 23.9643C41.7619 24.9505 40.9625 25.75 39.9762 25.75C38.99 25.75 38.1905 24.9505 38.1905 23.9643C38.1905 22.978 38.99 22.1786 39.9762 22.1786C40.9625 22.1786 41.7619 22.978 41.7619 23.9643Z" fill="#5EC74C"/>
</svg>
