<svg width="204" height="110" viewBox="0 0 204 110" fill="none" xmlns="http://www.w3.org/2000/svg">
<g clip-path="url(#clip0)">
<path d="M78.2065 63.0361L202.354 63.0361L202.354 0.481453L78.2065 0.481453L78.2065 63.0361Z" fill="#E00303"/>
<path d="M140.747 63.3249C139.784 74.8735 137.86 76.317 135.454 79.2042C131.171 84.3529 120.392 96.0458 109.421 105.573C103.214 110.963 98.9794 110.482 93.1089 110.482C86.8053 110.482 83.052 105.188 83.052 97.0563C83.052 82.765 83.0039 62.8437 83.0039 62.8437H88.297C88.297 62.8437 87.8158 85.8927 87.8158 98.3555C87.8158 103.264 90.3661 106.151 93.1089 106.151C97.3915 106.151 101.289 106.632 105.812 102.205C112.068 96.0458 120.825 89.0686 131.123 77.2794C134.251 73.7186 135.454 74.3923 135.935 63.3249C136.416 52.2575 141.42 55.1447 140.747 63.3249Z" fill="#E00303"/>
<path d="M83.0038 62.8437C83.0038 62.8437 73.38 62.8437 63.7562 62.8437C54.1324 62.8437 33.9224 31.0852 22.8551 31.0852C11.7877 31.0852 11.7877 31.0852 11.7877 31.0852C11.7877 31.0852 11.7877 31.5664 11.7877 32.0476C11.7877 32.5287 10.8253 32.5287 10.8253 32.0476C10.8253 31.5664 9.86295 31.5664 9.86295 31.5664C9.86295 31.5664 2.6451 31.5664 1.68272 31.5664C0.720343 31.5664 0.720343 28.198 1.68272 28.198C2.6451 28.198 8.90057 28.198 9.86295 28.198C10.3441 28.198 10.8253 28.198 10.8253 27.7168C10.8253 27.2357 11.7877 27.2357 11.7877 27.7168C11.7877 28.198 11.7877 28.6792 11.7877 28.6792C11.7877 28.6792 16.5996 28.6792 23.3363 28.6792C35.366 28.6792 55.0948 60.4378 64.7186 60.4378C70.4929 60.4378 83.0038 60.4378 83.0038 60.4378V62.8437Z" fill="#E00303"/>
<path d="M98.45 23.819C99.7974 22.0386 101.77 20.9319 103.984 20.7394C106.197 20.4026 108.314 21.0762 110.047 22.3754C111.153 23.1454 113.367 24.5889 116.687 26.0325C122.894 28.9196 129.631 30.4594 136.801 30.8925C144.981 31.3256 156.145 28.0054 160.572 26.5618C163.988 25.4551 166.442 24.2521 167.549 23.5784C170.773 21.6055 174.959 22.0386 177.702 24.7814C178.135 25.2145 178.568 25.7919 178.905 26.3212C180.012 28.1978 180.445 30.5076 179.915 32.6248C179.482 34.8383 178.135 36.6187 176.258 37.8216C174.719 38.8321 171.398 40.5644 165.624 42.4411C161.438 43.7884 147.05 48.1672 135.887 47.5417C126.6 47.0124 117.89 44.8951 109.806 41.2381C104.272 38.784 101.193 36.6187 99.7493 35.5119C99.653 35.4157 99.653 35.2713 99.5087 35.2713C99.3643 35.2713 99.4124 35.2713 99.2681 35.1751L98.9312 34.8383C95.996 31.903 95.8035 27.2836 98.45 23.819Z" fill="white"/>
<path d="M179.193 23.4342C179.434 22.7605 179.723 22.3275 180.3 21.9906H180.396C181.07 21.6538 181.84 21.75 182.61 22.3275C183.139 22.6643 183.38 23.1936 183.38 23.771C183.38 24.4447 183.043 24.974 182.706 25.5514C183.38 25.5514 184.053 25.792 184.486 26.0807C184.92 26.4176 185.16 26.9469 185.16 27.5243C185.16 28.3904 184.727 29.1603 183.957 29.4972C183.428 29.7378 182.754 29.7378 182.08 29.4972L179.193 23.4342ZM183.38 27.5243C183.283 27.2837 182.61 27.1875 181.744 27.2837C182.417 27.9574 183.091 28.0536 183.283 27.9574C183.283 27.8611 183.38 27.7168 183.38 27.5243ZM180.637 25.2146C181.166 24.5409 181.647 24.0116 181.503 23.771C181.262 23.5304 181.166 23.5304 181.07 23.5304C180.974 23.6267 180.637 24.2041 180.637 25.2146Z" fill="#74BF54"/>
<path d="M166.346 44.4139C172.313 42.441 175.873 40.5644 177.413 39.5539C179.723 38.0141 181.407 35.8006 182.033 33.0097C182.562 30.3632 182.129 27.476 180.685 25.1663C180.252 24.4926 179.675 23.819 179.146 23.2897C175.729 19.8732 170.436 19.2958 166.346 21.8461C165.335 22.5198 163.122 23.4821 159.802 24.5889C156.482 25.6956 144.885 29.2083 136.945 28.7752C129.968 28.3422 123.472 26.8024 117.505 24.1558C114.426 22.7122 112.212 21.5093 111.298 20.7394C109.181 19.1033 106.438 18.2853 103.695 18.6221C100.952 18.959 98.4981 20.2582 96.7177 22.4716C93.3975 26.658 93.8306 32.5285 97.4876 36.1856L97.8245 36.5224C98.065 36.8592 98.1613 36.8592 98.2575 36.9555L98.3538 37.1961C99.8936 38.3028 103.118 40.6125 108.844 43.1628C117.265 46.9161 126.215 49.0333 135.694 49.5626C136.464 49.6589 137.234 49.6589 138.004 49.6589C149.216 49.7551 162.256 45.7612 166.346 44.4139ZM98.4981 23.7709C99.8454 21.9905 101.818 20.8837 104.032 20.6912C106.245 20.3544 108.363 21.0281 110.095 22.3273C111.202 23.0972 113.415 24.5408 116.735 25.9843C122.943 28.8715 129.679 30.4113 136.849 30.8443C145.029 31.2774 156.193 27.9572 160.62 26.5136C164.036 25.4069 166.49 24.2039 167.597 23.5303C170.821 21.5574 175.007 21.9905 177.75 24.7332C178.183 25.1663 178.616 25.7437 178.953 26.273C180.06 28.1497 180.493 30.4594 179.964 32.5766C179.53 34.7901 178.183 36.5705 176.307 37.7735C174.767 38.784 171.446 40.5163 165.672 42.3929C161.486 43.7402 147.098 48.1191 135.935 47.4935C126.648 46.9642 117.938 44.847 109.854 41.1899C104.321 38.7359 101.241 36.5705 99.7973 35.4638C99.7011 35.3675 99.7011 35.2232 99.5567 35.2232C99.4124 35.2232 99.4605 35.2232 99.3161 35.1269L98.9793 34.7901C96.044 31.8067 95.8516 27.1873 98.4981 23.7709Z" fill="#F5813A"/>
<path d="M103.021 33.1538C103.117 33.25 103.262 33.4906 103.454 33.5869C103.695 33.8275 103.887 33.8275 104.128 33.8275C104.368 33.8275 104.465 33.7312 104.561 33.5869L105.09 32.5764L105.956 32.4801V35.0304C105.956 35.271 106.053 35.3673 106.197 35.4635C106.438 35.5597 106.63 35.5598 106.967 35.5598C107.304 35.5598 107.496 35.4635 107.641 35.2229C107.737 35.1267 107.737 34.9823 107.737 34.8861L107.496 31.9989L109.132 31.6621C109.373 31.6621 109.373 31.5659 109.469 31.4215C109.565 31.1809 109.565 30.9884 109.469 30.7479C109.469 30.5073 109.373 30.3148 109.132 30.2185C109.036 30.1223 108.892 30.1223 108.795 30.1223L106.149 30.796L108.603 26.7059C108.699 26.6096 108.699 26.4653 108.603 26.2728C108.507 26.1765 108.266 25.936 108.074 25.8397C107.833 25.7435 107.641 25.5991 107.4 25.5991C107.159 25.5991 107.063 25.6954 106.967 25.8397L102.973 32.5764C102.925 32.817 102.925 32.9132 103.021 33.1538Z" fill="#F5813A"/>
<path d="M109.997 37.0034C110.093 37.2439 110.333 37.3402 110.526 37.4364C110.767 37.5327 110.959 37.5327 111.2 37.5327C111.44 37.5327 111.536 37.4364 111.633 37.2921L112.643 34.838C112.739 34.5012 112.884 34.4049 113.076 34.3087C113.317 34.2125 113.509 34.2125 113.75 34.3087C113.991 34.3087 114.087 34.5493 114.183 34.7418C114.279 34.9824 114.279 35.1748 114.183 35.4154L113.172 37.8695C113.172 37.9657 113.172 38.1101 113.269 38.3026C113.365 38.5432 113.606 38.6394 113.798 38.7356C114.039 38.8319 114.231 38.9762 114.472 38.8319C114.712 38.6875 114.809 38.7356 114.905 38.495L115.915 36.041C116.156 35.3673 116.252 34.838 116.012 34.1643C115.915 33.635 115.578 33.1538 115.001 32.9614C114.664 32.8651 114.327 32.8651 113.991 32.8651C113.654 32.8651 113.461 32.9614 113.221 33.202L113.317 32.9614C113.317 32.8651 113.317 32.6245 113.221 32.5283C113.124 32.432 112.98 32.2877 112.788 32.1915C112.547 32.0952 112.354 32.0952 112.114 32.0952C111.873 32.0952 111.777 32.1915 111.681 32.3358L109.9 36.5222C109.997 36.6665 109.997 36.8109 109.997 37.0034Z" fill="#F5813A"/>
<path d="M117.937 40.1313C118.034 40.4682 118.371 40.6606 118.804 40.805C119.333 41.0456 120.007 40.805 120.776 40.3719L120.68 40.6125C120.68 40.7087 120.68 40.9493 120.776 41.0456C120.873 41.1418 121.113 41.2862 121.306 41.3824C121.546 41.3824 121.739 41.4786 121.979 41.3824C122.22 41.2862 122.316 41.1418 122.316 41.0456L123.086 38.3028C123.182 37.6291 123.182 37.0998 122.846 36.5224C122.509 35.9931 121.979 35.5119 121.065 35.3194C120.632 35.2232 120.055 35.0788 119.622 35.2232C119.189 35.2232 118.948 35.4638 118.852 35.6563C118.852 35.8968 118.852 36.0893 118.852 36.3299C118.852 36.5705 118.948 36.763 119.189 36.763C119.285 36.763 119.429 36.763 119.718 36.6667C120.055 36.5705 120.392 36.5705 120.728 36.6667C120.969 36.763 121.161 36.9073 121.258 37.0998C121.354 37.2923 121.354 37.5329 121.258 37.7735V37.8697L120.825 37.7735C119.958 37.5329 119.285 37.4367 118.707 37.5329C118.13 37.6291 117.841 37.966 117.601 38.6396C117.504 39.1208 117.504 39.5539 117.937 40.1313ZM119.814 38.5915C119.91 38.5915 120.055 38.5915 120.247 38.5915C120.488 38.5915 120.68 38.5915 120.921 38.6877C120.921 38.9283 120.68 39.1208 120.488 39.2171C120.295 39.3133 120.055 39.4577 119.814 39.3133C119.477 39.2171 119.381 39.0727 119.477 38.784C119.622 38.6877 119.718 38.5915 119.814 38.5915Z" fill="#F5813A"/>
<path d="M125.107 42.1039C125.348 42.3445 125.54 42.4408 125.781 42.4408C126.022 42.4408 126.214 42.4408 126.455 42.3445C126.695 42.2483 126.792 42.1039 126.792 42.0077L127.032 40.901L127.706 40.4679L128.813 42.7776C128.909 43.0182 129.053 43.1144 129.246 43.1144C129.438 43.1144 129.775 43.0182 130.016 42.8738C130.256 42.7776 130.449 42.537 130.449 42.3445C130.545 42.2483 130.449 42.1039 130.449 42.0077L129.246 39.4574L130.785 38.5912C130.882 38.495 131.026 38.3507 131.026 38.2544C131.026 38.0138 130.93 37.8213 130.785 37.5807C130.545 37.2439 130.449 37.1477 130.256 37.1477C130.16 37.1477 130.016 37.1477 129.919 37.2439L127.61 38.7837L128.38 34.1643C128.38 34.0681 128.283 33.8275 128.139 33.7312C127.898 33.635 127.706 33.4906 127.465 33.4906C127.225 33.3944 127.032 33.3944 126.792 33.4906C126.551 33.4906 126.455 33.7312 126.455 33.8275L125.107 41.5746C125.107 41.6709 125.107 41.8633 125.107 42.1039Z" fill="#F5813A"/>
<path d="M132.759 38.6873L134.539 43.3067C134.539 43.5473 134.876 43.6436 135.213 43.6436C135.646 43.6436 135.887 43.5473 135.887 43.403L136.753 41.2857L137.523 43.403C137.619 43.6436 137.859 43.7398 138.293 43.7398C138.726 43.7398 138.966 43.6436 139.062 43.403L141.035 38.8798C141.035 38.7835 141.035 38.7835 141.035 38.6392C141.035 38.3986 140.795 38.2061 140.602 38.1099C140.362 38.0136 140.073 37.8693 139.832 37.8693C139.496 37.773 139.399 37.8693 139.303 38.1099L138.196 41.0933L137.523 38.4467C137.523 38.2061 137.282 38.1099 136.993 38.1099C136.705 38.1099 136.464 38.2061 136.32 38.4467L135.454 40.997L134.443 37.9174C134.347 37.6768 134.202 37.5806 133.914 37.5806C133.673 37.5806 133.481 37.6768 133.144 37.8212C132.807 38.0618 132.711 38.158 132.711 38.3505C132.663 38.4467 132.759 38.5911 132.759 38.6873Z" fill="#F5813A"/>
<path d="M144.018 42.4409C144.547 42.874 145.221 43.1146 145.991 42.9702C146.664 42.874 147.338 42.5371 147.771 41.9597C148.204 41.4304 148.445 40.7567 148.3 40.0831L148.204 39.2169C148.204 38.5433 147.771 38.014 147.194 37.5809C146.664 37.2441 145.991 37.0516 145.221 37.1478C144.547 37.2441 143.873 37.5809 143.44 38.1583C143.007 38.6876 142.767 39.3613 142.911 40.035L143.007 40.9011C143.152 41.5748 143.489 42.1041 144.018 42.4409ZM144.788 39.8906C144.788 39.65 144.884 39.4575 145.028 39.2169C145.125 38.9763 145.365 38.8801 145.558 38.8801C145.75 38.8801 145.991 38.9763 146.231 39.1207C146.472 39.2651 146.568 39.4575 146.568 39.65L146.664 40.4199C146.664 40.6605 146.568 40.853 146.424 41.0936C146.328 41.3342 146.087 41.4304 145.894 41.4304C145.702 41.4304 145.461 41.3342 145.221 41.1898C144.98 41.0936 144.884 40.853 144.884 40.6605L144.788 39.8906Z" fill="#F5813A"/>
<path d="M151.428 41.8636C151.669 41.8636 151.765 41.9599 152.102 41.8636C152.439 41.7674 152.631 41.6231 152.776 41.5268C153.016 41.4306 153.016 41.19 153.016 41.0937L152.679 39.3133C152.583 38.784 152.583 38.3028 152.776 37.966C152.968 37.6292 153.209 37.4367 153.546 37.2923L153.882 37.1961C154.123 37.1961 154.219 37.0999 154.315 36.8593C154.412 36.6187 154.412 36.4262 154.412 36.1856C154.315 35.945 154.171 35.7525 154.075 35.6563C153.834 35.5601 153.738 35.5601 153.546 35.5601L153.209 35.6563C152.872 35.6563 152.679 35.7525 152.439 36.0894C152.198 36.4262 152.102 36.6187 152.006 36.9555L151.909 36.5224C151.909 36.4262 151.813 36.2818 151.573 36.1856C151.476 36.1856 151.236 36.1856 151.043 36.1856C150.803 36.2818 150.61 36.4262 150.514 36.5224C150.273 36.6187 150.273 36.8593 150.273 36.9555L151.284 41.4787C151.236 41.6712 151.332 41.7674 151.428 41.8636Z" fill="#F5813A"/>
<path d="M159.705 40.3234L160.234 40.2272C160.571 40.2272 160.668 40.1309 160.764 39.8903C160.764 39.6498 160.86 39.4573 160.764 39.2167C160.764 38.9761 160.668 38.7836 160.427 38.6874C160.186 38.5911 159.994 38.4468 159.753 38.5911L159.224 38.6874C158.983 38.6874 158.887 38.6874 158.791 38.6874C158.695 38.5911 158.55 38.4468 158.55 38.3505L158.021 36.2333L159.368 35.8965C159.465 35.8002 159.465 35.8002 159.609 35.5596C159.753 35.319 159.609 35.2228 159.609 35.0303C159.609 34.7897 159.513 34.6935 159.368 34.5973C159.224 34.501 159.128 34.501 159.032 34.501L157.684 34.8379L157.251 33.0574C157.251 32.8169 157.155 32.7206 156.914 32.7206C156.674 32.6244 156.481 32.6244 156.241 32.7206C156 32.8169 155.808 32.9612 155.711 33.0574C155.471 33.1537 155.471 33.3943 155.471 33.4905L156.914 38.7836C157.299 40.1309 158.165 40.564 159.705 40.3234Z" fill="#F5813A"/>
<path d="M163.505 38.4468C164.179 38.7837 164.949 38.7837 165.815 38.4468C166.489 38.2062 166.922 37.9175 167.259 37.5807C167.595 37.2438 167.692 36.907 167.595 36.7145C167.595 36.6183 167.499 36.3777 167.259 36.2815C167.018 36.1852 166.922 36.0409 166.729 36.1852C166.633 36.2815 166.392 36.4258 166.2 36.6183C165.959 36.8589 165.671 36.9551 165.43 37.0514C165.093 37.1476 164.756 37.1476 164.564 37.0514C164.371 36.9551 164.131 36.8108 164.035 36.5221V36.4258L166.248 35.6559C166.489 35.6559 166.585 35.5597 166.681 35.5597C166.777 35.5597 166.922 35.4634 167.018 35.3191C167.114 35.2228 167.259 35.0785 167.259 34.886C167.259 34.6454 167.259 34.4529 167.162 34.2123C166.922 33.5387 166.633 33.1056 165.959 32.865C165.286 32.6244 164.612 32.6244 163.986 32.865C163.217 33.1056 162.639 33.5387 162.35 34.2123C162.014 34.7417 161.917 35.4153 162.11 36.089L162.447 36.9551C162.495 37.5807 162.928 38.11 163.505 38.4468ZM163.505 35.1266C163.505 34.886 163.505 34.6935 163.602 34.5973C163.698 34.5011 163.938 34.3567 164.131 34.2605C164.371 34.2605 164.564 34.2605 164.804 34.2605C165.045 34.2605 165.141 34.3567 165.238 34.5973C165.334 34.8379 165.238 34.9341 165.141 34.9341L163.698 35.3672L163.505 35.1266Z" fill="#F5813A"/>
<path d="M170.868 36.1371C171.108 36.1371 171.301 36.1371 171.541 36.0408C171.782 35.9446 171.975 35.8003 172.071 35.6078C172.167 35.5115 172.311 35.2709 172.167 35.1747L168.895 28.0531C168.799 27.9569 168.654 27.8125 168.462 27.8125C168.269 27.8125 168.029 27.8125 167.788 27.9087C167.548 28.005 167.355 28.1493 167.259 28.3418C167.163 28.438 167.018 28.6786 167.163 28.7749L170.483 35.8484C170.435 36.0408 170.675 36.1371 170.868 36.1371Z" fill="#F5813A"/>
<path d="M170.726 63.1323C157.974 63.1323 147.629 73.4779 147.629 86.2294C147.629 98.981 157.974 109.327 170.726 109.327C183.478 109.327 193.823 98.981 193.823 86.2294C193.823 73.4779 183.478 63.1323 170.726 63.1323ZM170.726 96.7194C164.952 96.7194 160.236 92.0518 160.236 86.2294C160.236 80.407 164.904 75.7395 170.726 75.7395C176.548 75.7395 181.216 80.407 181.216 86.2294C181.216 92.0518 176.5 96.7194 170.726 96.7194Z" fill="#633E2C"/>
<path d="M170.725 94.2656C175.163 94.2656 178.761 90.6678 178.761 86.2297C178.761 81.7916 175.163 78.1938 170.725 78.1938C166.287 78.1938 162.689 81.7916 162.689 86.2297C162.689 90.6678 166.287 94.2656 170.725 94.2656Z" fill="#E00303"/>
</g>
<defs>
<clipPath id="clip0">
<rect width="204" height="110" fill="white"/>
</clipPath>
</defs>
</svg>
