<svg width="72" height="72" viewBox="0 0 72 72" fill="none" xmlns="http://www.w3.org/2000/svg">
<path d="M64.5715 34.7596H64.5716C64.6422 34.7596 64.7099 34.7873 64.7602 34.8369C64.8076 34.8835 64.8359 34.9459 64.8399 35.0119C64.8358 35.0815 64.8063 35.1474 64.7568 35.1969C64.7052 35.2484 64.636 35.2783 64.5632 35.2804H51.8035H51.4556L51.2095 35.5264L47.4463 39.2896L47.2003 39.5357V39.8836L47.2003 43.8298C47.2003 43.8303 47.2003 43.8309 47.2003 43.8314C47.1959 45.6525 46.4706 47.3977 45.1829 48.6854C43.895 49.9733 42.1494 50.6986 40.3281 50.7028C40.3279 50.7028 40.3276 50.7028 40.3273 50.7028H18.2893C18.289 50.7028 18.2888 50.7028 18.2885 50.7028C16.4672 50.6986 14.7216 49.9733 13.4337 48.6854C12.1459 47.3975 11.4205 45.652 11.4163 43.8307V39.43H11.4164L11.4162 39.4171C11.4157 39.3837 11.4218 39.3505 11.4343 39.3194C11.4467 39.2884 11.4652 39.2602 11.4886 39.2364C11.5121 39.2126 11.54 39.1936 11.5709 39.1807C11.6017 39.1678 11.6348 39.1612 11.6682 39.1612H11.6683H46.4779H46.8248L47.0707 38.9164L51.1698 34.834L51.1806 34.8233L51.1909 34.8123C51.2073 34.7947 51.2273 34.7808 51.2495 34.7717C51.2717 34.7625 51.2957 34.7582 51.3197 34.7591L51.3348 34.7596H51.3499H64.5715ZM12.7771 39.6316H11.9371V40.4716V43.8316C11.9371 45.5158 12.6062 47.1311 13.7971 48.322C14.988 49.5129 16.6033 50.182 18.2875 50.182H40.3291C41.163 50.182 41.9888 50.0177 42.7593 49.6986C43.5298 49.3795 44.2298 48.9117 44.8195 48.322C45.4092 47.7323 45.877 47.0323 46.1961 46.2618C46.5152 45.4913 46.6795 44.6655 46.6795 43.8316V40.4716V39.6316H45.8395H12.7771Z" fill="#13110C" stroke="#F6813A" stroke-width="1.68"/>
<path d="M20.4876 28.09H20.4877C20.559 28.09 20.6273 28.1183 20.6778 28.1687C20.7282 28.2191 20.7565 28.2875 20.7565 28.3588V32.8025C20.7543 32.8753 20.7245 32.9445 20.673 32.9961C20.6233 33.0457 20.5573 33.0752 20.4875 33.0792C20.4556 33.0774 20.4243 33.0698 20.395 33.0569C20.3621 33.0424 20.3324 33.0214 20.3077 32.9952L19.6994 33.5682L20.3077 32.9952C20.283 32.969 20.2638 32.9381 20.2513 32.9043C20.2388 32.8706 20.2332 32.8346 20.2348 32.7987L20.2357 32.7795V32.7604V28.3588H20.2358L20.2356 28.3459C20.2351 28.3125 20.2412 28.2793 20.2536 28.2483C20.2661 28.2172 20.2846 28.189 20.308 28.1652C20.3315 28.1414 20.3594 28.1225 20.3902 28.1095C20.4211 28.0966 20.4542 28.09 20.4876 28.09Z" fill="#13110C" stroke="#F6813A" stroke-width="1.68"/>
<path d="M29.1227 32.9969L28.5315 33.5881L29.1227 32.9969C29.0712 32.9453 29.0414 32.8761 29.0392 32.8033V23.9916C29.0392 23.9203 29.0675 23.852 29.1179 23.8015C29.1684 23.7511 29.2367 23.7228 29.308 23.7228C29.3793 23.7228 29.4477 23.7511 29.4981 23.8015C29.5485 23.852 29.5768 23.9203 29.5768 23.9916V32.8033C29.5747 32.8761 29.5448 32.9453 29.4933 32.9969L30.0873 33.5909L29.4933 32.9969C29.4437 33.0465 29.3777 33.076 29.308 33.08C29.2383 33.076 29.1723 33.0465 29.1227 32.9969Z" fill="#13110C" stroke="#F6813A" stroke-width="1.68"/>
<path d="M38.3808 32.8108V32.8109C38.3808 32.8815 38.3531 32.9492 38.3036 32.9995C38.2569 33.0469 38.1945 33.0752 38.1284 33.0792C38.0949 33.0773 38.0619 33.0694 38.031 33.0559C37.9963 33.0408 37.9649 33.0189 37.9387 32.9915C37.9126 32.9642 37.8921 32.9319 37.8785 32.8965C37.8649 32.8611 37.8585 32.8234 37.8597 32.7856L37.86 32.773V32.7604V28.3588C37.86 28.2875 37.8884 28.2191 37.9388 28.1687C37.9892 28.1183 38.0575 28.09 38.1288 28.09H38.1289C38.1624 28.09 38.1954 28.0966 38.2263 28.1095C38.2571 28.1225 38.2851 28.1414 38.3085 28.1652C38.332 28.189 38.3504 28.2172 38.3629 28.2482L38.3629 28.2483C38.3753 28.2793 38.3815 28.3125 38.3809 28.3459L38.3808 28.3459V28.3588V32.8108Z" fill="#13110C" stroke="#F6813A" stroke-width="1.68"/>
<path d="M36.104 70.2085C54.9391 70.2085 70.208 54.9396 70.208 36.1045C70.208 17.2694 54.9391 2.00049 36.104 2.00049C17.2689 2.00049 2 17.2694 2 36.1045C2 54.9396 17.2689 70.2085 36.104 70.2085Z" stroke="#F6813A" stroke-width="2.7216" stroke-miterlimit="10"/>
</svg>
