<?xml version="1.0" encoding="utf-8"?>
<!-- Generator: Adobe Illustrator 22.0.1, SVG Export Plug-In . SVG Version: 6.00 Build 0)  -->
<svg version="1.1" id="Layer_1" xmlns="http://www.w3.org/2000/svg" xmlns:xlink="http://www.w3.org/1999/xlink" x="0px" y="0px"
	 viewBox="0 0 1366 768" style="enable-background:new 0 0 1366 768;" xml:space="preserve">
<style type="text/css">
	.st0{fill:#54B848;}
	.st1{fill:#F37920;}
	.st2{fill:#FFFFFF;}
</style>
<g>
	<path class="st0" d="M1307.4,310.2c9.7,3.5,19.1,4,27,0.7c10.8-4.6,17.5-15.4,17.8-29.9c0.2-8.8-3.3-16.5-9.8-21.8
		c-6.7-5.4-16-7.7-25.5-8.3c5.4-7.8,9.4-16.5,9.4-25.1c-0.1-8.4-4-16-11-21.3c-11-8.3-22.9-10.2-33-5.3c-0.5,0.2-1,0.5-1.5,0.8
		c-7.5,4.2-13,11.8-16.2,21.6 M1324.6,287L1324.6,287c-2.9,1.2-12.1-0.7-22.8-10c12.3-1.1,22.7,0.2,24.7,3.4
		C1326.4,283.8,1325.6,286.5,1324.6,287z M1293.4,222.5C1293.4,222.5,1293.4,222.5,1293.4,222.5c1-0.5,3.6,0.6,7.1,3.3
		c0.8,3.1-4.8,11.8-13.4,20.8C1286.5,232.5,1290.7,224,1293.4,222.5z"/>
</g>
<g>
	<path class="st1" d="M664.4,606c-11.8,0-23.3-0.3-34.4-0.9c-138.5-7.6-270.5-39.3-392.3-94.2c-83.4-37.5-131.7-71.3-153.1-88.1
		c-1.2-1-2-1.5-2.6-2c-2.2-1.5-3.5-2.6-6.7-5.7l-4.6-4.7c-54.3-54.3-59.5-141-12-201.7c25.1-32,61.2-52.3,101.6-57.2
		c40.5-4.9,80.4,6.2,112.4,31.3c13.7,10.7,44.6,29.5,90.3,50.1c87.5,39.4,183,62.2,283.8,67.8c44.9,2.5,102.1-3.3,170.2-17.2
		c66.2-13.5,126.4-31.4,165.3-43.9c47.7-15.5,80.5-30.7,95.3-39.9c60.5-37.5,137.8-28.6,188,21.6c8.3,8.3,15.7,17.6,21.9,27.6
		c21.4,34.6,28.1,75.4,18.7,115.1c-9.3,39.7-33.5,73.3-68.1,94.7c-23.1,14.3-74.9,42.6-161.8,70.8c-50.1,16.2-128.6,39.1-218,56
		C785.7,599.1,720.7,606,664.4,606z M179,181.7c-4.9,0-9.9,0.3-14.9,0.9c-32.2,3.9-60.8,20-80.7,45.5c-37.7,48.2-33.6,117,9.5,160.2
		l0,0l4.6,4.6c1.6,1.6,1.7,1.7,2.6,2.3c0.8,0.6,2,1.4,3.8,2.9c20.3,15.9,66.3,48,146.6,84.2c118.3,53.3,246.5,84.1,381.1,91.5
		c61.1,3.4,135.4-3.1,220.7-19.1c87.8-16.5,164.9-39,214.1-55c83.8-27.2,133.1-54,155-67.6c27.5-17,46.6-43.7,54.1-75.3
		s2.1-64-14.9-91.4c-5-8-10.8-15.4-17.4-22c-39.9-39.9-101.3-46.9-149.3-17.2c-16.3,10.1-51.7,26.7-102.1,43.1
		c-39.6,12.8-101,31-168.7,44.8c-70.7,14.4-130.7,20.4-178.2,17.8c-104.7-5.8-203.9-29.5-294.9-70.5c-48.3-21.7-81.6-42.1-96.8-54
		C231.9,190.6,205.9,181.7,179,181.7z"/>
</g>
<g>
	<path class="st1" d="M151.3,356.7l58.3-98.7c1.3-2.1,3.3-3.2,6.3-3.2c2.9,0,6.1,0.9,9.4,2.9c3.4,2,5.9,4.4,7.4,7
		c1.5,2.7,1.6,5,0.4,7.1l-35,59.2l39.5-9.5c1.9-0.5,3.8-0.2,5.6,0.9c2.5,1.5,4.3,4.2,5.4,8.2c1.1,4,0.8,7.2-0.6,9.7
		c-0.9,1.5-2.3,2.5-4.2,3l-24.8,5.3l3.5,41.2c0,1.8-0.3,3.2-0.9,4.3c-1.5,2.6-4.6,4.3-9.1,5.1s-8.3,0.3-11.2-1.4
		c-2.4-1.4-3.7-3.5-3.9-6.2l-2.3-37.9l-11.9,2.5l-8.3,14.1c-1.1,1.8-3.2,2.8-6.5,2.9c-3.3,0.1-6.5-0.8-9.7-2.7
		c-3.2-1.9-5.5-4.2-6.9-7C150.2,360.9,150.1,358.6,151.3,356.7z"/>
	<path class="st1" d="M254.5,413.7l26-61.6c1-2.3,2.9-3.6,5.8-4c2.9-0.4,6.2,0.1,9.9,1.7c3,1.3,5.3,3.1,6.9,5.4
		c1.6,2.3,1.9,4.6,0.9,6.9l-1.6,3.8c3.2-2.7,7.2-4.5,12-5.3c4.8-0.8,9.8-0.1,14.9,2c7.4,3.1,12.5,9.2,15.1,18.2
		c2.6,9,2,18.1-1.9,27.4l-15.3,36.2c-1,2.5-3.1,3.9-6.1,4.2c-3.1,0.3-6.3-0.3-9.7-1.7c-3.2-1.4-5.8-3.3-7.8-5.7
		c-1.9-2.5-2.4-4.9-1.4-7.2l15.2-36.1c1.3-3.1,1.3-6.4,0.1-9.9c-1.3-3.5-3.5-5.8-6.6-7.2c-2.8-1.2-5.8-1.1-8.9,0.1
		c-3.1,1.3-5.5,3.7-7,7.4l-15.2,36.1c-0.8,1.9-2.8,3.2-6,3.7c-3.2,0.5-6.5,0.1-9.8-1.3c-3.6-1.5-6.2-3.5-7.9-6.1
		C254.1,418,253.7,415.7,254.5,413.7z"/>
	<path class="st1" d="M366.8,443.2c2.6-9,7.8-14.3,15.7-16.1c7.9-1.7,18.1-0.7,30.9,2.9l6.1,1.8l0.5-1.8c1-3.5,0.9-6.9-0.4-10.1
		c-1.3-3.2-4.1-5.4-8.5-6.7c-5.4-1.6-10.1-1.8-14.2-0.7c-4.1,1.1-6.5,1.5-7.3,1.3c-2.7-0.8-4.5-2.7-5.3-5.8
		c-0.8-3.1-0.7-6.3,0.2-9.7c1.1-3.7,5.1-6,12.1-6.8c7-0.8,13.9-0.3,20.6,1.7c12.9,3.7,21.7,9.7,26.2,17.8c4.5,8.1,5.4,16.9,2.7,26.4
		l-11.6,40.1c-0.6,2.2-2.4,3.8-5.3,4.7c-2.9,0.9-6.2,0.8-9.9-0.3c-3.3-0.9-5.8-2.6-7.5-4.9c-1.8-2.3-2.3-4.7-1.6-7.1l1.1-4
		c-10.5,7.3-20.4,9.6-29.8,6.9c-6.2-1.8-10.8-5.3-13.7-10.4C364.9,457.2,364.6,450.8,366.8,443.2z M394.1,447.4
		c-1.3,4.4,0.3,7.2,4.7,8.5c2.8,0.8,6,0.2,9.7-1.9c3.7-2.1,6-5,7.1-8.8l0.2-0.6l-0.7-0.2c-3.7-1.1-6.8-1.8-9.3-2.2
		c-2.5-0.4-4.9-0.2-7.2,0.5C396.2,443.4,394.8,445,394.1,447.4z"/>
	<path class="st1" d="M475.9,487l19.3-113c0.4-2.4,2-4.2,4.7-5.2c2.7-1.1,6-1.3,9.8-0.6c3.9,0.7,7.1,2,9.4,3.9
		c2.3,1.9,3.3,4.1,2.9,6.5l-11.6,67.8l33.5-22.9c1.6-1.1,3.5-1.5,5.5-1.2c2.9,0.5,5.5,2.4,7.9,5.7c2.4,3.3,3.4,6.4,2.9,9.3
		c-0.3,1.7-1.3,3.2-2.9,4.3l-21.2,13.8l18,37.3c0.7,1.7,0.9,3.1,0.7,4.4c-0.5,3-2.8,5.7-6.7,8c-4,2.3-7.6,3.2-11,2.7
		c-2.8-0.5-4.7-1.9-5.8-4.4l-15.6-34.6l-10.2,6.6l-2.8,16.1c-0.4,2.1-2,3.7-5,5c-3,1.3-6.4,1.6-10,1c-3.7-0.6-6.7-2-8.9-4.1
		C476.5,491.4,475.5,489.2,475.9,487z"/>
	<path class="st1" d="M587.2,440.7c0.1-2.9,2.2-5.4,6.2-7.5c4.1-2.1,8.1-3,11.9-3c4.1,0.1,6.6,1.6,7.4,4.4l14.5,45l12.2-37.5
		c1.1-3.5,4.2-5.2,9.1-5c4.9,0.1,7.9,1.9,8.8,5.5l10.3,38l16.7-44.2c1-2.8,3.5-4.1,7.5-4c3.9,0.1,7.8,1.3,11.8,3.6
		c4,2.3,5.9,5,5.9,8c0,1.3-0.3,2.4-0.8,3.3L680,514.2c-1.4,3.1-4.9,4.6-10.6,4.5c-6.3-0.2-10-1.8-11.1-5l-10.8-30.8l-12.3,30.2
		c-1.2,3.1-5.1,4.6-11.5,4.5c-5.6-0.1-9-1.8-10.2-5L588,444.4C587.4,442.8,587.2,441.6,587.2,440.7z"/>
	<path class="st1" d="M739.4,477.2l-1.7-12.2c-1.4-9.8,1.3-18.9,8.1-27.3c6.8-8.3,15.5-13.2,26.3-14.7c10.7-1.5,20.4,0.8,29.3,6.9
		c8.9,6.1,14,14.1,15.4,24.1l1.7,12.2c1.3,9.7-1.4,18.9-8.3,27.4c-6.9,8.5-15.6,13.5-26.2,15c-10.5,1.5-20.3-1-29.2-7.3
		C745.8,495,740.7,487,739.4,477.2z M766.3,473.4c0.5,3.4,2.1,6.4,4.9,8.7c2.8,2.4,6,3.3,9.4,2.8c3.5-0.5,6.3-2.2,8.4-5.3
		c2.1-3,2.9-6.3,2.5-9.7l-1.7-12.1c-0.5-3.3-2.2-6.1-5.1-8.4c-2.9-2.3-6.1-3.2-9.4-2.7c-3.4,0.5-6.1,2.2-8.2,5.2
		c-2.1,3-3,6.1-2.5,9.5L766.3,473.4z"/>
	<path class="st1" d="M858.7,485.9l-14.1-65.4c-0.5-2.4,0.3-4.6,2.4-6.6c2.1-2,5.1-3.4,8.9-4.2c3.3-0.7,6.3-0.6,8.9,0.4
		c2.6,1,4.2,2.7,4.7,5.1l1.4,6.4c0.9-4.5,3-8.8,6.2-12.7c3.2-3.9,6.8-6.3,10.9-7.2l5-1.1c2.5-0.5,5,0.1,7.3,2
		c2.4,1.9,3.9,4.4,4.6,7.5c0.7,3.2,0.3,6.2-1,8.9c-1.4,2.7-3.3,4.3-5.9,4.9l-5,1.1c-4.9,1.1-8.8,4.4-11.5,9.9
		c-2.8,5.5-3.3,12.1-1.7,19.6l5.5,25.7c0.4,2.1-0.5,4.2-2.8,6.5c-2.3,2.3-5.3,3.8-9,4.6c-3.7,0.8-6.9,0.6-9.8-0.5
		C860.8,489.7,859.2,488.1,858.7,485.9z"/>
	<path class="st1" d="M942.9,445.4l-21.1-78c-0.6-2.2,0.2-4.5,2.5-6.7c2.3-2.2,5.1-3.8,8.4-4.7c3.5-0.9,6.8-1.1,9.8-0.3
		c3,0.7,4.9,2.2,5.4,4.3l7,25.8l19.1-5.2c2-0.6,3.9,0,5.6,1.8c1.7,1.7,2.9,3.9,3.6,6.7c0.8,2.8,0.9,5.4,0.3,7.7
		c-0.6,2.3-1.9,3.7-3.9,4.2l-19.1,5.2l8.4,31.1c0.6,2.3,1.6,3.8,2.8,4.4c1.3,0.6,3.2,0.6,5.8-0.1l7.3-2c3.6-1,6.7-0.6,9.2,1.2
		c2.5,1.8,4.2,4.2,5.1,7.3c0.9,3.2,0.6,6.2-0.7,8.9c-1.3,2.8-3.8,4.6-7.4,5.6l-7.3,2C961.6,470.6,948,464.2,942.9,445.4z"/>
	<path class="st1" d="M1020.6,417.6l-4.1-12.1c-3.2-9.4-2.2-18.8,3-28.1c5.2-9.3,13-15.7,23.5-19.3c9.9-3.4,19.3-3.3,28.3,0.3
		s15.1,10,18.2,19.2c1.2,3.5,1.7,6.5,1.6,9c-0.1,2.5-0.9,4.5-2.4,6c-1.5,1.5-2.9,2.6-4.3,3.4c-1.4,0.8-3.3,1.6-5.8,2.4l-32.1,10.9
		l0.3,1c1.4,4.1,4.1,7,8.1,8.4c4,1.5,8.5,1.3,13.6-0.4c3.9-1.3,7.6-3.8,11.1-7.3c3.5-3.6,6-5.6,7.5-6.1c2.8-0.9,5.5-0.4,8.1,1.6
		c2.7,2,4.4,4.2,5.2,6.5c1.2,3.4-0.7,7.8-5.5,13.1c-4.8,5.3-11.6,9.4-20.3,12.4c-12.4,4.2-23.6,4.4-33.6,0.6
		C1031,435.3,1024.2,428.1,1020.6,417.6z M1041.6,394.9l20.6-7c2.3-0.8,3.1-2.4,2.3-4.8c-1-2.8-2.9-4.6-5.8-5.4
		c-2.9-0.8-6.1-0.6-9.4,0.5c-3.2,1.1-5.7,2.8-7.6,5.3c-1.8,2.4-2.3,5-1.3,7.8L1041.6,394.9z"/>
	<path class="st1" d="M1140.9,401.8l-48.8-103.7c-1-2.2-0.8-4.6,0.9-7c1.6-2.4,4.2-4.5,7.8-6.2c3.5-1.6,6.8-2.3,9.8-2.1
		c3,0.3,5.1,1.5,6.1,3.7l48.8,103.7c0.9,1.9,0.5,4.2-1.2,7c-1.7,2.7-4.2,4.9-7.6,6.5c-3.5,1.6-6.8,2.2-9.8,1.8
		C1143.8,405.1,1141.8,403.9,1140.9,401.8z"/>
</g>
<g>
	<path class="st2" d="M1293.4,222.5C1293.4,222.5,1293.4,222.5,1293.4,222.5c1-0.5,3.6,0.6,7.1,3.3c0.8,3.1-4.8,11.8-13.4,20.8
		C1286.5,232.5,1290.7,224,1293.4,222.5z"/>
</g>
</svg>
