<svg width="64" height="64" viewBox="0 0 64 64" fill="none" xmlns="http://www.w3.org/2000/svg">
<path d="M32 62C48.5685 62 62 48.5685 62 32C62 15.4315 48.5685 2 32 2C15.4315 2 2 15.4315 2 32C2 48.5685 15.4315 62 32 62Z" fill="white" stroke="#5EC74C" stroke-width="4"/>
<path fill-rule="evenodd" clip-rule="evenodd" d="M19.0512 27.1084H24.3669V45.6343H19.0512V27.1084ZM21.5735 24.7912H21.5351C19.6108 24.7912 18.3633 23.375 18.3633 21.5816C18.3633 19.7515 19.6477 18.3633 21.6104 18.3633C23.5715 18.3633 24.7774 19.748 24.8159 21.5764C24.8159 23.3697 23.5715 24.7912 21.5735 24.7912ZM45.636 45.636H39.6084V36.0474C39.6084 33.5381 38.6655 31.8268 36.5921 31.8268C35.0063 31.8268 34.1243 32.981 33.7138 34.0969C33.5599 34.495 33.5839 35.0521 33.5839 35.6109V45.636H27.6124C27.6124 45.636 27.6894 28.6521 27.6124 27.1084H33.5839V30.0159C33.9367 28.7447 35.8449 26.9303 38.89 26.9303C42.6679 26.9303 45.636 29.5968 45.636 35.3332V45.636Z" fill="#5EC74C"/>
</svg>
