<svg width="64" height="64" viewBox="0 0 64 64" fill="none" xmlns="http://www.w3.org/2000/svg">
<path d="M32 62C48.5685 62 62 48.5685 62 32C62 15.4315 48.5685 2 32 2C15.4315 2 2 15.4315 2 32C2 48.5685 15.4315 62 32 62Z" fill="white" stroke="#5EC74C" stroke-width="4"/>
<path fill-rule="evenodd" clip-rule="evenodd" d="M19.8794 27.8162C20.2589 28.064 21.4028 28.8002 23.3113 30.0243C25.2198 31.2484 26.6818 32.1911 27.6975 32.852C27.809 32.9245 28.0462 33.0819 28.4088 33.3246C28.7715 33.5675 29.0729 33.764 29.3127 33.9137C29.5527 34.0634 29.8429 34.2313 30.1834 34.4171C30.5238 34.6029 30.8448 34.7425 31.146 34.8352C31.4475 34.9284 31.7265 34.9746 31.9832 34.9746H32H32.0168C32.2735 34.9746 32.5525 34.9284 32.854 34.8352C33.1552 34.7425 33.4764 34.6027 33.8166 34.4171C34.1569 34.2311 34.4471 34.0634 34.6871 33.9137C34.9271 33.764 35.2283 33.5675 35.591 33.3246C35.9536 33.0817 36.191 32.9245 36.3025 32.852C37.3291 32.1909 39.941 30.5122 44.1373 27.8158C44.952 27.2891 45.6325 26.6537 46.1795 25.9098C46.7267 25.1663 47 24.3864 47 23.5702C47 22.8884 46.7347 22.3047 46.2046 21.8191C45.6745 21.3335 45.0465 21.0908 44.3214 21.0908H19.6784C18.8191 21.0908 18.1579 21.3594 17.6947 21.8965C17.2316 22.4338 17 23.1054 17 23.9111C17 24.5619 17.307 25.2672 17.9208 26.0264C18.5345 26.7857 19.1875 27.3823 19.8794 27.8162ZM45.3258 29.4741C41.6653 31.7673 38.886 33.5494 36.989 34.8201C36.3529 35.254 35.8367 35.5925 35.4403 35.835C35.0442 36.0779 34.5169 36.3257 33.8584 36.5789C33.2 36.832 32.5862 36.9585 32.0171 36.9585H32H31.9832C31.414 36.9585 30.8 36.832 30.1416 36.5789C29.4833 36.3257 28.9558 36.0779 28.5597 35.835C28.1635 35.5925 27.6473 35.254 27.0112 34.8201C25.5044 33.7975 22.731 32.0153 18.6909 29.4741C18.0547 29.0817 17.4911 28.6321 17 28.126V40.4294C17 41.1115 17.2622 41.695 17.7868 42.1805C18.3114 42.6663 18.942 42.909 19.6786 42.909H44.3216C45.058 42.909 45.6886 42.6663 46.2132 42.1805C46.738 41.6948 47 41.1115 47 40.4294V28.126C46.52 28.6216 45.9621 29.0713 45.3258 29.4741Z" fill="#5EC74C"/>
</svg>
