<svg width="30" height="22" viewBox="0 0 30 22" fill="none" xmlns="http://www.w3.org/2000/svg">
<path fill-rule="evenodd" clip-rule="evenodd" d="M2.87938 6.81616C3.2589 7.06399 4.40281 7.80024 6.3113 9.02434C8.21979 10.2484 9.68178 11.1911 10.6975 11.852C10.809 11.9245 11.0462 12.0819 11.4088 12.3246C11.7715 12.5675 12.0729 12.764 12.3127 12.9137C12.5527 13.0634 12.8429 13.2313 13.1834 13.4171C13.5238 13.6029 13.8448 13.7425 14.146 13.8352C14.4475 13.9284 14.7265 13.9746 14.9832 13.9746H15H15.0168C15.2735 13.9746 15.5525 13.9284 15.854 13.8352C16.1552 13.7425 16.4764 13.6027 16.8166 13.4171C17.1569 13.2311 17.4471 13.0634 17.6871 12.9137C17.9271 12.764 18.2283 12.5675 18.591 12.3246C18.9536 12.0817 19.191 11.9245 19.3025 11.852C20.3291 11.1909 22.941 9.5122 27.1373 6.81578C27.952 6.28913 28.6325 5.65368 29.1795 4.90983C29.7267 4.16635 30 3.38635 30 2.57022C30 1.88837 29.7347 1.30465 29.2046 0.819082C28.6745 0.333511 28.0465 0.0908203 27.3214 0.0908203H2.67842C1.81911 0.0908203 1.15788 0.359378 0.694727 0.896492C0.231576 1.4338 0 2.10538 0 2.91105C0 3.5619 0.306987 4.26715 0.920754 5.02642C1.53452 5.78568 2.18753 6.38232 2.87938 6.81616ZM28.3258 8.4741C24.6653 10.7673 21.886 12.5494 19.989 13.8201C19.3529 14.254 18.8367 14.5925 18.4403 14.835C18.0442 15.0779 17.5169 15.3257 16.8584 15.5789C16.2 15.832 15.5862 15.9585 15.0171 15.9585H15H14.9832C14.414 15.9585 13.8 15.832 13.1416 15.5789C12.4833 15.3257 11.9558 15.0779 11.5597 14.835C11.1635 14.5925 10.6473 14.254 10.0112 13.8201C8.50438 12.7975 5.73103 11.0153 1.69089 8.4741C1.05473 8.08173 0.491096 7.6321 0 7.12599V19.4294C0 20.1115 0.262192 20.695 0.786781 21.1805C1.31137 21.6663 1.94199 21.909 2.67863 21.909H27.3216C28.058 21.909 28.6886 21.6663 29.2132 21.1805C29.738 20.6948 30 20.1115 30 19.4294V7.12599C29.52 7.62164 28.9621 8.07127 28.3258 8.4741Z" fill="#F6813A"/>
</svg>
