<svg width="64" height="64" viewBox="0 0 64 64" fill="none" xmlns="http://www.w3.org/2000/svg">
<path d="M32 62C48.5685 62 62 48.5685 62 32C62 15.4315 48.5685 2 32 2C15.4315 2 2 15.4315 2 32C2 48.5685 15.4315 62 32 62Z" fill="white" stroke="#5EC74C" stroke-width="4"/>
<path fill-rule="evenodd" clip-rule="evenodd" d="M43.6262 24.9714C44.8398 24.2055 45.771 22.9912 46.208 21.5446C45.0717 22.2555 43.8161 22.7696 42.4765 23.0479C41.4075 21.8425 39.8796 21.0908 38.1887 21.0908C34.9447 21.0908 32.3159 23.8652 32.3159 27.2866C32.3159 27.7723 32.3646 28.2456 32.4655 28.6977C27.5843 28.4389 23.2562 25.9747 20.3567 22.2236C19.8508 23.1419 19.5617 24.2055 19.5617 25.3401C19.5617 27.4887 20.5988 29.3855 22.1754 30.4988C21.2123 30.4669 20.3063 30.185 19.513 29.7241V29.8003C19.513 32.8034 21.5367 35.3083 24.2277 35.8755C23.7335 36.0209 23.2158 36.0936 22.678 36.0936C22.2998 36.0936 21.93 36.0563 21.5737 35.9837C22.32 38.4442 24.4899 40.2383 27.0616 40.2861C25.0496 41.949 22.5166 42.9382 19.7651 42.9382C19.2911 42.9382 18.8221 42.9116 18.3633 42.8531C20.9635 44.6099 24.0512 45.6363 27.3692 45.6363C38.1769 45.6363 44.0834 36.1946 44.0834 28.0063C44.0834 27.7368 44.08 27.4692 44.0683 27.205C45.2163 26.3311 46.2147 25.239 46.9996 23.9964C45.9458 24.4892 44.8129 24.8225 43.6262 24.9714Z" fill="#5EC74C"/>
</svg>
